<svg width="13" height="26" viewBox="0 0 13 26" fill="none" xmlns="http://www.w3.org/2000/svg">
<g id="fa-solid:female" clip-path="url(#clip0_701_216)">
<path id="Vector" d="M6.50015 0C8.29506 0 9.75015 1.45509 9.75015 3.25C9.75015 5.04491 8.29506 6.5 6.50015 6.5C4.70523 6.5 3.25015 5.04491 3.25015 3.25C3.25015 1.45509 4.70523 0 6.50015 0ZM12.5575 17.9857L10.12 8.23565C10.0541 7.97197 9.9019 7.7379 9.68767 7.57063C9.47344 7.40336 9.20944 7.3125 8.93765 7.3125H8.36077C7.20748 7.84281 5.84253 7.86571 4.63952 7.3125H4.06265C3.79085 7.3125 3.52686 7.40336 3.31263 7.57063C3.0984 7.7379 2.94623 7.97197 2.88031 8.23565L0.442808 17.9857C0.250753 18.7538 0.832097 19.5 1.62515 19.5H4.4689V24.7812C4.4689 25.4544 5.01454 26 5.68765 26H7.31265C7.98575 26 8.5314 25.4544 8.5314 24.7812V19.5H11.3751C12.1669 19.5 12.7498 18.755 12.5575 17.9857Z" fill="#5832E6"/>
</g>
<defs>
<clipPath id="clip0_701_216">
<rect width="13" height="26" fill="white"/>
</clipPath>
</defs>
</svg>
