<svg width="10" height="26" viewBox="0 0 10 26" fill="none" xmlns="http://www.w3.org/2000/svg">
<g id="fa-solid:male" clip-path="url(#clip0_701_220)">
<path id="Vector" d="M5.13553 0.502319C6.84119 0.502319 8.22392 1.88505 8.22392 3.59072C8.22392 5.29638 6.84119 6.67911 5.13553 6.67911C3.42986 6.67911 2.04713 5.29638 2.04713 3.59072C2.04713 1.88505 3.42986 0.502319 5.13553 0.502319ZM7.45182 7.45121H6.90363C5.80769 7.95515 4.51061 7.97692 3.36742 7.45121H2.81923C1.53996 7.45121 0.50293 8.48824 0.50293 9.76751V16.3304C0.50293 16.97 1.02144 17.4885 1.66108 17.4885H2.43318V24.0514C2.43318 24.691 2.95169 25.2095 3.59133 25.2095H6.67973C7.31936 25.2095 7.83787 24.691 7.83787 24.0514V17.4885H8.60997C9.24961 17.4885 9.76812 16.97 9.76812 16.3304V9.76751C9.76812 8.48824 8.7311 7.45121 7.45182 7.45121Z" fill="#16C098"/>
</g>
<defs>
<clipPath id="clip0_701_220">
<rect width="9.26519" height="24.7072" fill="white" transform="translate(0.502747 0.502808)"/>
</clipPath>
</defs>
</svg>
