<svg width="29" height="33" viewBox="0 0 29 33" fill="none" xmlns="http://www.w3.org/2000/svg">
<path id="Ellipse 36" d="M27.0187 22.5398C28.6076 23.4629 29.1694 25.5302 27.9387 26.8948C26.3288 28.6797 24.3282 30.0907 22.0756 31.0074C18.7887 32.3449 15.1508 32.5541 11.7322 31.6022C8.3136 30.6504 5.30739 28.5912 3.18466 25.7474C1.06194 22.9036 -0.0573268 19.436 0.0022604 15.8878C0.0618476 12.3396 1.29692 8.91151 3.51394 6.14062C5.73095 3.36972 8.80462 1.41266 12.2533 0.576114C15.7019 -0.260431 19.3307 0.0708167 22.5709 1.51795C24.7914 2.5097 26.7435 3.98715 28.2925 5.82512C29.4767 7.23022 28.8458 9.27748 27.2269 10.1467C25.6079 11.016 23.6173 10.3428 22.2398 9.12659C21.5325 8.50213 20.7304 7.9838 19.8572 7.59385C17.9619 6.74734 15.8392 6.55358 13.8219 7.04292C11.8046 7.53226 10.0067 8.67705 8.70983 10.2979C7.41298 11.9187 6.69052 13.924 6.65566 15.9995C6.62081 18.0751 7.27553 20.1035 8.51722 21.767C9.75891 23.4304 11.5174 24.635 13.5171 25.1918C15.5169 25.7486 17.6448 25.6262 19.5675 24.8438C20.4533 24.4834 21.2724 23.9923 22.0003 23.3919C23.4178 22.2227 25.4299 21.6167 27.0187 22.5398Z" fill="#5932EA"/>
</svg>
