<svg width="14" height="16" viewBox="0 0 14 16" fill="none" xmlns="http://www.w3.org/2000/svg">
<path id="Ellipse 37" d="M12.6813 10.8577C13.6534 11.4224 13.9986 12.6963 13.1914 13.4788C12.5136 14.1357 11.7121 14.6616 10.8262 15.0221C9.30664 15.6404 7.62488 15.7372 6.04446 15.2971C4.46404 14.8571 3.07426 13.9051 2.09293 12.5904C1.1116 11.2758 0.594164 9.67265 0.621711 8.03234C0.649259 6.39203 1.22023 4.80721 2.24515 3.52622C3.27008 2.24524 4.69103 1.34049 6.28534 0.953761C7.87965 0.567027 9.55721 0.720163 11.0551 1.38917C11.9284 1.77919 12.7119 2.3317 13.3672 3.01106C14.1477 3.82018 13.7599 5.08174 12.7694 5.61353C11.7789 6.14533 10.5448 5.6842 9.54191 5.17633C9.4936 5.15187 9.44461 5.12853 9.39497 5.10637C8.7198 4.80482 7.96365 4.7358 7.24504 4.91011C6.52642 5.08443 5.88594 5.49223 5.42397 6.06962C4.962 6.64701 4.70464 7.36135 4.69222 8.1007C4.67981 8.84005 4.91303 9.56263 5.35536 10.1552C5.79768 10.7478 6.42411 11.1769 7.13646 11.3752C7.84882 11.5736 8.60685 11.53 9.29178 11.2513C9.34213 11.2308 9.39187 11.2091 9.44098 11.1863C10.4604 10.7124 11.7093 10.2929 12.6813 10.8577Z" fill="#16C098"/>
</svg>
