<svg width="31" height="31" viewBox="0 0 31 31" fill="none" xmlns="http://www.w3.org/2000/svg">
<g id="mi:notification">
<path id="Vector" d="M13.1827 4.55991C13.3695 4.0983 13.6898 3.70298 14.1027 3.42462C14.5156 3.14627 15.0022 2.99756 15.5002 2.99756C15.9981 2.99756 16.4848 3.14627 16.8977 3.42462C17.3106 3.70298 17.6309 4.0983 17.8177 4.55991C19.6661 5.06826 21.2966 6.16935 22.4586 7.69407C23.6207 9.2188 24.2501 11.0828 24.2502 12.9999V18.8712L26.5402 22.3062C26.6658 22.4944 26.7379 22.7132 26.7489 22.9393C26.7599 23.1653 26.7093 23.3901 26.6025 23.5896C26.4958 23.7891 26.3368 23.956 26.1427 24.0722C25.9486 24.1885 25.7265 24.2499 25.5002 24.2499H19.8314C19.6809 25.2913 19.1603 26.2436 18.3648 26.9323C17.5694 27.6211 16.5524 28.0002 15.5002 28.0002C14.448 28.0002 13.431 27.6211 12.6356 26.9323C11.8401 26.2436 11.3194 25.2913 11.1689 24.2499H5.50019C5.27388 24.2499 5.05182 24.1885 4.85768 24.0722C4.66354 23.956 4.50461 23.7891 4.39784 23.5896C4.29108 23.3901 4.24049 23.1653 4.25147 22.9393C4.26245 22.7132 4.33459 22.4944 4.46019 22.3062L6.75019 18.8712V12.9999C6.75019 8.9699 9.47519 5.57491 13.1827 4.55991ZM13.7327 24.2499C13.8618 24.6157 14.1012 24.9325 14.4178 25.1565C14.7345 25.3806 15.1129 25.5009 15.5008 25.5009C15.8887 25.5009 16.2671 25.3806 16.5838 25.1565C16.9005 24.9325 17.1398 24.6157 17.2689 24.2499H13.7314H13.7327ZM15.5002 6.74991C13.8426 6.74991 12.2529 7.40839 11.0808 8.58049C9.90867 9.75259 9.25019 11.3423 9.25019 12.9999V19.2499C9.25024 19.4968 9.17717 19.7382 9.04019 19.9437L7.83644 21.7499H23.1627L21.9589 19.9437C21.8224 19.7381 21.7498 19.4967 21.7502 19.2499V12.9999C21.7502 11.3423 21.0917 9.75259 19.9196 8.58049C18.7475 7.40839 17.1578 6.74991 15.5002 6.74991Z" fill="#898A8D"/>
<circle id="Ellipse 30" cx="21.75" cy="8" r="4.375" fill="#FF0000" stroke="#EBEBEB" stroke-width="1.25"/>
</g>
</svg>
