<svg width="29" height="29" viewBox="0 0 29 29" fill="none" xmlns="http://www.w3.org/2000/svg">
<path d="M9.66642 26.5836H19.3331C24.1906 26.5836 25.0606 24.6382 25.3143 22.2698L26.2206 12.6032C26.5468 9.65483 25.701 7.25024 20.5414 7.25024H8.45808C3.2985 7.25024 2.45267 9.65483 2.77892 12.6032L3.68517 22.2698C3.93892 24.6382 4.80892 26.5836 9.66642 26.5836Z" stroke="#292D32" stroke-width="1.5" stroke-miterlimit="10" stroke-linecap="round" stroke-linejoin="round"/>
<path d="M9.66644 7.2502V6.28354C9.66644 4.14479 9.66644 2.41687 13.5331 2.41687H15.4664C19.3331 2.41687 19.3331 4.14479 19.3331 6.28354V7.2502" stroke="#292D32" stroke-width="1.5" stroke-miterlimit="10" stroke-linecap="round" stroke-linejoin="round"/>
<path d="M16.9164 15.7086V16.9169C16.9164 16.929 16.9164 16.929 16.9164 16.9411C16.9164 18.2582 16.9043 19.3336 14.4997 19.3336C12.1072 19.3336 12.0831 18.2702 12.0831 16.9532V15.7086C12.0831 14.5002 12.0831 14.5002 13.2914 14.5002H15.7081C16.9164 14.5002 16.9164 14.5002 16.9164 15.7086Z" stroke="#292D32" stroke-width="1.5" stroke-miterlimit="10" stroke-linecap="round" stroke-linejoin="round"/>
<path d="M26.1602 13.2919C23.3689 15.3219 20.1789 16.5302 16.9164 16.941" stroke="#292D32" stroke-width="1.5" stroke-miterlimit="10" stroke-linecap="round" stroke-linejoin="round"/>
<path d="M3.16559 13.6182C5.88434 15.479 8.95351 16.6027 12.0831 16.9532" stroke="#292D32" stroke-width="1.5" stroke-miterlimit="10" stroke-linecap="round" stroke-linejoin="round"/>
</svg>
