<svg width="29" height="29" viewBox="0 0 29 29" fill="none" xmlns="http://www.w3.org/2000/svg">
<path d="M12.216 13.4728H9.01389C8.25264 13.4728 7.63641 14.089 7.63641 14.8502V21.0369H12.216V13.4728V13.4728Z" stroke="#292D32" stroke-width="1.5" stroke-miterlimit="10" stroke-linecap="round" stroke-linejoin="round"/>
<path d="M15.4196 7.97485H13.5829C12.8217 7.97485 12.2054 8.59112 12.2054 9.35237V21.0249H16.785V9.35237C16.785 8.59112 16.1809 7.97485 15.4196 7.97485Z" stroke="#292D32" stroke-width="1.5" stroke-miterlimit="10" stroke-linecap="round" stroke-linejoin="round"/>
<path d="M19.9954 15.527H16.7933V21.025H21.3729V16.9045C21.3608 16.1432 20.7446 15.527 19.9954 15.527Z" stroke="#292D32" stroke-width="1.5" stroke-miterlimit="10" stroke-linecap="round" stroke-linejoin="round"/>
<path d="M10.8748 26.5832H18.1248C24.1664 26.5832 26.5831 24.1665 26.5831 18.1248V10.8748C26.5831 4.83317 24.1664 2.4165 18.1248 2.4165H10.8748C4.83311 2.4165 2.41644 4.83317 2.41644 10.8748V18.1248C2.41644 24.1665 4.83311 26.5832 10.8748 26.5832Z" stroke="#292D32" stroke-width="1.5" stroke-linecap="round" stroke-linejoin="round"/>
</svg>
