<svg width="29" height="30" viewBox="0 0 29 30" fill="none" xmlns="http://www.w3.org/2000/svg">
<rect width="29" height="30" fill="#292929"/>
<g id="Dashboard HR Management" clip-path="url(#clip0_0_1)">
<rect width="1440" height="1024" transform="translate(-40 -230)" fill="#F8FAFB"/>
<g id="Side Menu">
<g id="Rectangle 319" filter="url(#filter0_d_0_1)">
<mask id="path-1-inside-1_0_1" fill="white">
<path d="M-40 -128H233V794H-40V-128Z"/>
</mask>
<path d="M-40 -128H233V794H-40V-128Z" fill="white"/>
<path d="M232 -128V794H234V-128H232Z" fill="#E8E8E8" mask="url(#path-1-inside-1_0_1)"/>
</g>
<g id="Group 260">
<g id="Group 259">
<g id="Side Menu_2">
<rect id="Rectangle 296" x="-40" y="-16" width="272" height="62" fill="#F8F8F8"/>
<g id="Group 180">
<g id="Dashboard">
<g id="element-2 1">
<path id="Vector" d="M9.79702 27.5342H5.01117C2.6301 27.5342 1.48102 26.4325 1.48102 24.158V5.4411C1.48102 3.16663 2.64194 2.06494 5.01117 2.06494H9.79702C12.1781 2.06494 13.3272 3.16663 13.3272 5.4411V24.158C13.3272 26.4325 12.1662 27.5342 9.79702 27.5342ZM5.01117 3.84186C3.50671 3.84186 3.25794 4.24463 3.25794 5.4411V24.158C3.25794 25.3545 3.50671 25.7573 5.01117 25.7573H9.79702C11.3015 25.7573 11.5502 25.3545 11.5502 24.158V5.4411C11.5502 4.24463 11.3015 3.84186 9.79702 3.84186H5.01117Z" fill="#5932EA"/>
<path id="Vector_2" d="M23.4195 16.8726H18.6336C16.2525 16.8726 15.1035 15.7709 15.1035 13.4965V5.4411C15.1035 3.16663 16.2644 2.06494 18.6336 2.06494H23.4195C25.8005 2.06494 26.9496 3.16663 26.9496 5.4411V13.4965C26.9496 15.7709 25.7887 16.8726 23.4195 16.8726ZM18.6336 3.84186C17.1291 3.84186 16.8804 4.24463 16.8804 5.4411V13.4965C16.8804 14.6929 17.1291 15.0957 18.6336 15.0957H23.4195C24.9239 15.0957 25.1727 14.6929 25.1727 13.4965V5.4411C25.1727 4.24463 24.9239 3.84186 23.4195 3.84186H18.6336Z" fill="#5932EA"/>
<path id="Vector_3" d="M23.4195 27.5337H18.6336C16.2525 27.5337 15.1035 26.432 15.1035 24.1575V22.0252C15.1035 19.7507 16.2644 18.649 18.6336 18.649H23.4195C25.8005 18.649 26.9496 19.7507 26.9496 22.0252V24.1575C26.9496 26.432 25.7887 27.5337 23.4195 27.5337ZM18.6336 20.426C17.1291 20.426 16.8804 20.8287 16.8804 22.0252V24.1575C16.8804 25.354 17.1291 25.7567 18.6336 25.7567H23.4195C24.9239 25.7567 25.1727 25.354 25.1727 24.1575V22.0252C25.1727 20.8287 24.9239 20.426 23.4195 20.426H18.6336Z" fill="#5932EA"/>
</g>
</g>
</g>
</g>
</g>
</g>
</g>
</g>
<defs>
<filter id="filter0_d_0_1" x="-90" y="-158" width="373" height="1022" filterUnits="userSpaceOnUse" color-interpolation-filters="sRGB">
<feFlood flood-opacity="0" result="BackgroundImageFix"/>
<feColorMatrix in="SourceAlpha" type="matrix" values="0 0 0 0 0 0 0 0 0 0 0 0 0 0 0 0 0 0 127 0" result="hardAlpha"/>
<feOffset dy="20"/>
<feGaussianBlur stdDeviation="25"/>
<feComposite in2="hardAlpha" operator="out"/>
<feColorMatrix type="matrix" values="0 0 0 0 0.86125 0 0 0 0 0.87883 0 0 0 0 0.975 0 0 0 0.5 0"/>
<feBlend mode="normal" in2="BackgroundImageFix" result="effect1_dropShadow_0_1"/>
<feBlend mode="normal" in="SourceGraphic" in2="effect1_dropShadow_0_1" result="shape"/>
</filter>
<clipPath id="clip0_0_1">
<rect width="1440" height="1024" fill="white" transform="translate(-40 -230)"/>
</clipPath>
</defs>
</svg>
