<svg width="28" height="28" viewBox="0 0 28 28" fill="none" xmlns="http://www.w3.org/2000/svg">
<path d="M14.2534 13.659C14.2196 13.659 14.197 13.659 14.1631 13.659C14.1066 13.6477 14.0276 13.6477 13.9598 13.659C10.685 13.5574 8.21198 10.9827 8.21198 7.80952C8.21198 4.57987 10.8431 1.94873 14.0728 1.94873C17.3024 1.94873 19.9335 4.57987 19.9335 7.80952C19.9223 10.9827 17.4379 13.5574 14.2873 13.659C14.276 13.659 14.2647 13.659 14.2534 13.659ZM14.0728 3.6426C11.7804 3.6426 9.90584 5.51715 9.90584 7.80952C9.90584 10.068 11.6675 11.8861 13.9147 11.9651C13.9711 11.9538 14.1292 11.9538 14.276 11.9651C16.4893 11.8635 18.2284 10.0454 18.2397 7.80952C18.2397 5.51715 16.3651 3.6426 14.0728 3.6426Z" fill="#7B7B7B"/>
<path d="M14.2647 26.0018C12.0514 26.0018 9.82676 25.4372 8.14419 24.3079C6.57454 23.269 5.71631 21.8461 5.71631 20.2991C5.71631 18.752 6.57454 17.3179 8.14419 16.2677C11.5319 14.0205 17.0201 14.0205 20.3852 16.2677C21.9436 17.3066 22.8131 18.7294 22.8131 20.2765C22.8131 21.8236 21.9549 23.2577 20.3852 24.3079C18.6913 25.4372 16.478 26.0018 14.2647 26.0018ZM9.08146 17.6905C7.99739 18.4132 7.41018 19.3392 7.41018 20.3104C7.41018 21.2702 8.00868 22.1962 9.08146 22.9076C11.8933 24.7935 16.6361 24.7935 19.4479 22.9076C20.532 22.1849 21.1192 21.2589 21.1192 20.2878C21.1192 19.3279 20.5207 18.4019 19.4479 17.6905C16.6361 15.816 11.8933 15.816 9.08146 17.6905Z" fill="#7B7B7B"/>
</svg>
