<svg width="31" height="31" viewBox="0 0 31 31" fill="none" xmlns="http://www.w3.org/2000/svg">
<g id="more-square 1">
<path id="Vector" opacity="0.4" d="M20.6069 2.5459H9.94027C5.30704 2.5459 2.54492 5.30802 2.54492 9.94125V20.5951C2.54492 25.2411 5.30704 28.0032 9.94027 28.0032H20.5942C25.2274 28.0032 27.9895 25.2411 27.9895 20.6079V9.94125C28.0022 5.30802 25.2401 2.5459 20.6069 2.5459Z" fill="#EBEBEB"/>
<path id="Vector_2" d="M15.2748 16.5477C14.562 16.5477 14.002 15.9749 14.002 15.2748C14.002 14.5747 14.5747 14.002 15.2748 14.002C15.9749 14.002 16.5477 14.5747 16.5477 15.2748C16.5477 15.9749 15.9876 16.5477 15.2748 16.5477Z" fill="#292D32"/>
<path id="Vector_3" d="M20.3666 16.5477C19.6538 16.5477 19.0938 15.9749 19.0938 15.2748C19.0938 14.5747 19.6665 14.002 20.3666 14.002C21.0667 14.002 21.6395 14.5747 21.6395 15.2748C21.6395 15.9749 21.0794 16.5477 20.3666 16.5477Z" fill="#292D32"/>
<path id="Vector_4" d="M10.183 16.5477C9.47022 16.5477 8.91016 15.9749 8.91016 15.2748C8.91016 14.5747 9.48295 14.002 10.183 14.002C10.8831 14.002 11.4559 14.5747 11.4559 15.2748C11.4559 15.9749 10.8958 16.5477 10.183 16.5477Z" fill="#292D32"/>
</g>
</svg>
