<svg width="28" height="28" viewBox="0 0 28 28" fill="none" xmlns="http://www.w3.org/2000/svg">
<path d="M19.8331 24.5005H8.1664C3.49974 24.5005 2.33307 23.3338 2.33307 18.6672V9.33382C2.33307 4.66715 3.49974 3.50049 8.1664 3.50049H19.8331C24.4997 3.50049 25.6664 4.66715 25.6664 9.33382V18.6672C25.6664 23.3338 24.4997 24.5005 19.8331 24.5005Z" stroke="#7B7B7B" stroke-width="1.75" stroke-linecap="round" stroke-linejoin="round"/>
<path d="M16.3331 9.33386H22.1664" stroke="#7B7B7B" stroke-width="1.75" stroke-linecap="round" stroke-linejoin="round"/>
<path d="M17.4998 14.0005H22.1664" stroke="#7B7B7B" stroke-width="1.75" stroke-linecap="round" stroke-linejoin="round"/>
<path d="M19.8331 18.6671H22.1664" stroke="#7B7B7B" stroke-width="1.75" stroke-linecap="round" stroke-linejoin="round"/>
<path d="M9.9169 13.1721C11.0831 13.1721 12.0286 12.2266 12.0286 11.0604C12.0286 9.89416 11.0831 8.94873 9.9169 8.94873C8.75066 8.94873 7.80524 9.89416 7.80524 11.0604C7.80524 12.2266 8.75066 13.1721 9.9169 13.1721Z" stroke="#7B7B7B" stroke-width="1.75" stroke-linecap="round" stroke-linejoin="round"/>
<path d="M13.9997 19.0519C13.8364 17.3603 12.4947 16.0303 10.8031 15.8786C10.2197 15.8203 9.62474 15.8203 9.02974 15.8786C7.33807 16.0419 5.9964 17.3603 5.83307 19.0519" stroke="#7B7B7B" stroke-width="1.75" stroke-linecap="round" stroke-linejoin="round"/>
</svg>
