<svg width="28" height="28" viewBox="0 0 28 28" fill="none" xmlns="http://www.w3.org/2000/svg">
<path d="M14.0732 18.6285C11.7356 18.6285 9.8385 16.7314 9.8385 14.3939C9.8385 12.0563 11.7356 10.1592 14.0732 10.1592C16.4107 10.1592 18.3078 12.0563 18.3078 14.3939C18.3078 16.7314 16.4107 18.6285 14.0732 18.6285ZM14.0732 11.853C12.6729 11.853 11.5324 12.9936 11.5324 14.3939C11.5324 15.7941 12.6729 16.9347 14.0732 16.9347C15.4734 16.9347 16.614 15.7941 16.614 14.3939C16.614 12.9936 15.4734 11.853 14.0732 11.853Z" fill="#7B7B7B"/>
<path d="M17.6981 25.9008C17.4609 25.9008 17.2238 25.8669 16.9866 25.8105C16.2865 25.6185 15.6993 25.1781 15.3266 24.557L15.1911 24.3312C14.5249 23.1793 13.6102 23.1793 12.9439 24.3312L12.8197 24.5457C12.4471 25.1781 11.8598 25.6298 11.1597 25.8105C10.4483 26.0024 9.71428 25.9008 9.0932 25.5282L7.15089 24.4102C6.46205 24.015 5.96519 23.3713 5.75063 22.5921C5.54736 21.8129 5.649 21.0112 6.04423 20.3223C6.37171 19.7464 6.46205 19.227 6.27008 18.8995C6.07811 18.572 5.59253 18.38 4.92628 18.38C3.27758 18.38 1.93378 17.0362 1.93378 15.3875V13.4001C1.93378 11.7514 3.27758 10.4076 4.92628 10.4076C5.59253 10.4076 6.07811 10.2156 6.27008 9.88811C6.46205 9.56063 6.38301 9.04117 6.04423 8.46526C5.649 7.77642 5.54736 6.96336 5.75063 6.19547C5.95389 5.41629 6.45076 4.77262 7.15089 4.37739L9.10449 3.25943C10.3805 2.50284 12.0631 2.94324 12.831 4.24188L12.9665 4.46773C13.6328 5.61956 14.5475 5.61956 15.2137 4.46773L15.3379 4.25317C16.1058 2.94324 17.7884 2.50284 19.0757 3.27073L21.018 4.38868C21.7069 4.78392 22.2037 5.42759 22.4183 6.20677C22.6216 6.98595 22.5199 7.78771 22.1247 8.47655C21.7972 9.05247 21.7069 9.57192 21.8988 9.8994C22.0908 10.2269 22.5764 10.4189 23.2426 10.4189C24.8913 10.4189 26.2352 11.7627 26.2352 13.4114V15.3988C26.2352 17.0475 24.8913 18.3913 23.2426 18.3913C22.5764 18.3913 22.0908 18.5833 21.8988 18.9108C21.7069 19.2383 21.7859 19.7577 22.1247 20.3336C22.5199 21.0225 22.6329 21.8355 22.4183 22.6034C22.215 23.3826 21.7182 24.0263 21.018 24.4215L19.0644 25.5395C18.6353 25.7766 18.1723 25.9008 17.6981 25.9008ZM14.0732 21.7226C15.0782 21.7226 16.0155 22.355 16.6591 23.4729L16.7834 23.6875C16.9189 23.9246 17.1447 24.094 17.4157 24.1618C17.6868 24.2295 17.9578 24.1957 18.1836 24.0601L20.1372 22.9309C20.4308 22.7615 20.6567 22.4792 20.747 22.1404C20.8374 21.8017 20.7922 21.4516 20.6228 21.158C19.9791 20.0513 19.9001 18.9108 20.3969 18.0413C20.8938 17.1717 21.9214 16.6749 23.2088 16.6749C23.9315 16.6749 24.5074 16.099 24.5074 15.3762V13.3888C24.5074 12.6773 23.9315 12.0901 23.2088 12.0901C21.9214 12.0901 20.8938 11.5933 20.3969 10.7238C19.9001 9.85423 19.9791 8.71369 20.6228 7.60703C20.7922 7.31343 20.8374 6.96336 20.747 6.62459C20.6567 6.28581 20.4421 6.01479 20.1485 5.83411L18.1949 4.71616C17.7093 4.42256 17.0657 4.59194 16.7721 5.08881L16.6479 5.30337C16.0042 6.42132 15.0669 7.0537 14.0619 7.0537C13.0568 7.0537 12.1196 6.42132 11.4759 5.30337L11.3517 5.07752C11.0694 4.60324 10.437 4.43385 9.95142 4.71616L7.99783 5.84541C7.70422 6.01479 7.47837 6.29711 7.38803 6.63588C7.2977 6.97465 7.34287 7.32472 7.51225 7.61832C8.15592 8.72498 8.23497 9.86552 7.7381 10.735C7.24123 11.6046 6.21362 12.1014 4.92628 12.1014C4.20356 12.1014 3.62765 12.6773 3.62765 13.4001V15.3875C3.62765 16.099 4.20356 16.6862 4.92628 16.6862C6.21362 16.6862 7.24123 17.183 7.7381 18.0526C8.23497 18.9221 8.15592 20.0626 7.51225 21.1693C7.34287 21.4629 7.2977 21.8129 7.38803 22.1517C7.47837 22.4905 7.69293 22.7615 7.98654 22.9422L9.94013 24.0601C10.1773 24.2069 10.4596 24.2408 10.7193 24.1731C10.9903 24.1053 11.2162 23.9246 11.363 23.6875L11.4872 23.4729C12.1309 22.3663 13.0681 21.7226 14.0732 21.7226Z" fill="#7B7B7B"/>
</svg>
