<svg width="29" height="29" viewBox="0 0 29 29" fill="none" xmlns="http://www.w3.org/2000/svg">
<path d="M21.9189 26.1243C20.8556 26.4384 19.5989 26.5834 18.1247 26.5834H10.8747C9.40057 26.5834 8.1439 26.4384 7.08057 26.1243C7.3464 22.9826 10.5726 20.5055 14.4997 20.5055C18.4268 20.5055 21.6531 22.9826 21.9189 26.1243Z" stroke="#292D32" stroke-width="1.5" stroke-linecap="round" stroke-linejoin="round"/>
<path d="M18.1248 2.41675H10.8748C4.83311 2.41675 2.41644 4.83341 2.41644 10.8751V18.1251C2.41644 22.6926 3.79394 25.1938 7.08061 26.1242C7.34644 22.9826 10.5727 20.5055 14.4998 20.5055C18.4269 20.5055 21.6531 22.9826 21.9189 26.1242C25.2056 25.1938 26.5831 22.6926 26.5831 18.1251V10.8751C26.5831 4.83341 24.1664 2.41675 18.1248 2.41675ZM14.4998 17.1221C12.1073 17.1221 10.1739 15.1768 10.1739 12.7843C10.1739 10.3918 12.1073 8.45841 14.4998 8.45841C16.8923 8.45841 18.8256 10.3918 18.8256 12.7843C18.8256 15.1768 16.8923 17.1221 14.4998 17.1221Z" stroke="#292D32" stroke-width="1.5" stroke-linecap="round" stroke-linejoin="round"/>
<path d="M18.8256 12.7844C18.8256 15.1769 16.8923 17.1222 14.4998 17.1222C12.1073 17.1222 10.174 15.1769 10.174 12.7844C10.174 10.3919 12.1073 8.4585 14.4998 8.4585C16.8923 8.4585 18.8256 10.3919 18.8256 12.7844Z" stroke="#292D32" stroke-width="1.5" stroke-linecap="round" stroke-linejoin="round"/>
</svg>
